<?xml version="1.0" encoding="utf-8"?>
<!-- Generator: Adobe Illustrator 23.0.3, SVG Export Plug-In . SVG Version: 6.00 Build 0)  -->
<svg version="1.1" id="Layer_1" xmlns="http://www.w3.org/2000/svg" xmlns:xlink="http://www.w3.org/1999/xlink" x="0px" y="0px"
	 viewBox="0 0 25 25" style="enable-background:new 0 0 25 25;" xml:space="preserve">
<style type="text/css">
	.st0{fill:#FFFFFF;}
</style>
<title>noun_555068_cc</title>
<desc>Created using Figma</desc>
<g>
	<path id="path0_fill" d="M12.5,25C5.6,25,0,19.4,0,12.5C0,5.6,5.6,0,12.5,0C19.4,0,25,5.6,25,12.5C25,19.4,19.4,25,12.5,25z"/>
	<g>
		<path class="st0" d="M15.6,5.7H9.4c-2,0-3.7,1.7-3.7,3.7v6.3c0,2,1.7,3.7,3.7,3.7h6.3c2,0,3.7-1.7,3.7-3.7V9.4
			C19.3,7.3,17.7,5.7,15.6,5.7z M18.5,15.6c0,1.6-1.3,2.9-2.9,2.9H9.4c-1.6,0-2.9-1.3-2.9-2.9V9.4c0-1.6,1.3-2.9,2.9-2.9h6.3
			c1.6,0,2.9,1.3,2.9,2.9V15.6z"/>
		<path class="st0" d="M12.5,8.8c-2.1,0-3.7,1.7-3.7,3.7s1.7,3.7,3.7,3.7s3.7-1.7,3.7-3.7S14.6,8.8,12.5,8.8z M12.5,15.4
			c-1.6,0-2.9-1.3-2.9-2.9c0-1.6,1.3-2.9,2.9-2.9c1.6,0,2.9,1.3,2.9,2.9C15.4,14.1,14.1,15.4,12.5,15.4z"/>
		<path class="st0" d="M16.3,7.4c-0.6,0-1.1,0.5-1.1,1.1c0,0.6,0.5,1.1,1.1,1.1c0.6,0,1.1-0.5,1.1-1.1S16.9,7.4,16.3,7.4z M16.3,8.8
			c-0.2,0-0.3-0.1-0.3-0.3c0-0.2,0.1-0.3,0.3-0.3c0.2,0,0.3,0.1,0.3,0.3C16.6,8.7,16.5,8.8,16.3,8.8z"/>
	</g>
</g>
</svg>
