<?xml version="1.0" encoding="utf-8"?>
<!-- Generator: Adobe Illustrator 23.0.3, SVG Export Plug-In . SVG Version: 6.00 Build 0)  -->
<svg version="1.1" id="Layer_1" xmlns="http://www.w3.org/2000/svg" xmlns:xlink="http://www.w3.org/1999/xlink" x="0px" y="0px"
	 viewBox="0 0 25 25" style="enable-background:new 0 0 25 25;" xml:space="preserve">
<style type="text/css">
	.st0{fill:#FFFFFF;}
</style>
<title>noun_99709_cc</title>
<desc>Created using Figma</desc>
<g>
	<path id="path0_fill" d="M12.5,0C19.4,0,25,5.6,25,12.5C25,19.4,19.4,25,12.5,25C5.6,25,0,19.4,0,12.5C0,5.6,5.6,0,12.5,0z"/>
	<g>
		<g>
			<path class="st0" d="M16.1,5.3l-1.9,0c-2.1,0-3.5,1.4-3.5,3.6v1.7H8.9c-0.2,0-0.3,0.1-0.3,0.3v2.4c0,0.2,0.1,0.3,0.3,0.3h1.9v6
				c0,0.2,0.1,0.3,0.3,0.3h2.5c0.2,0,0.3-0.1,0.3-0.3v-6H16c0.2,0,0.3-0.1,0.3-0.3l0-2.4c0-0.1,0-0.2-0.1-0.2
				c-0.1-0.1-0.1-0.1-0.2-0.1h-2.2V9.2c0-0.7,0.2-1,1-1l1.3,0c0.2,0,0.3-0.1,0.3-0.3V5.6C16.4,5.5,16.3,5.3,16.1,5.3z"/>
		</g>
	</g>
</g>
</svg>
