<?xml version="1.0" encoding="utf-8"?>
<!-- Generator: Adobe Illustrator 23.0.3, SVG Export Plug-In . SVG Version: 6.00 Build 0)  -->
<svg version="1.1" id="Layer_1" xmlns="http://www.w3.org/2000/svg" xmlns:xlink="http://www.w3.org/1999/xlink" x="0px" y="0px"
	 viewBox="0 0 25 25" style="enable-background:new 0 0 25 25;" xml:space="preserve">
<style type="text/css">
	.st0{fill:#FFFFFF;}
</style>
<title>noun_555068_cc</title>
<desc>Created using Figma</desc>
<path id="path0_fill" d="M12.5,25C5.6,25,0,19.4,0,12.5C0,5.6,5.6,0,12.5,0C19.4,0,25,5.6,25,12.5C25,19.4,19.4,25,12.5,25z"/>
<g>
	<g>
		<g>
			<rect x="6.3" y="10.4" class="st0" width="2.7" height="8.2"/>
			<path class="st0" d="M18,11.1c-0.6-0.6-1.3-0.9-2.3-0.9c-0.3,0-0.7,0-0.9,0.1c-0.3,0.1-0.5,0.2-0.7,0.4c-0.2,0.2-0.4,0.3-0.5,0.4
				c-0.1,0.1-0.2,0.3-0.3,0.4v-1.2h-2.7l0,0.4c0,0.3,0,1.1,0,2.5c0,1.4,0,3.2,0,5.4h2.7V14c0-0.3,0-0.5,0.1-0.7
				c0.1-0.3,0.3-0.5,0.5-0.7c0.2-0.2,0.5-0.3,0.9-0.3c0.5,0,0.8,0.2,1,0.5c0.2,0.3,0.3,0.8,0.3,1.4v4.4h2.7v-4.7
				C18.9,12.7,18.6,11.8,18,11.1z"/>
			<path class="st0" d="M7.7,6.4c-0.5,0-0.8,0.1-1.1,0.4c-0.3,0.3-0.4,0.6-0.4,1c0,0.4,0.1,0.7,0.4,1c0.3,0.3,0.6,0.4,1.1,0.4h0
				c0.5,0,0.8-0.1,1.1-0.4c0.3-0.3,0.4-0.6,0.4-1c0-0.4-0.1-0.7-0.4-1C8.5,6.6,8.1,6.4,7.7,6.4z"/>
		</g>
	</g>
</g>
</svg>
